{
  "accessors": [
    {
      "bufferView": 1,
      "componentType": 5126,
      "count": 1386,
      "max": [
        6.111999988555908,
        -42.10599899291992,
        -19.513999938964844
      ],
      "min": [
        -5.348999977111816,
        -47.00899887084961,
        -23.329999923706055
      ],
      "type": "VEC3"
    },
    {
      "bufferView": 1,
      "byteOffset": 16632,
      "componentType": 5126,
      "count": 1386,
      "max": [
        0.9903339743614197,
        0.9483069777488708,
        0.9631602168083191
      ],
      "min": [
        -0.9996896386146545,
        -0.9998597502708435,
        -0.9995506405830383
      ],
      "type": "VEC3"
    },
    {
      "bufferView": 0,
      "componentType": 5125,
      "count": 7818,
      "type": "SCALAR"
    },
    {
      "bufferView": 1,
      "byteOffset": 33264,
      "componentType": 5126,
      "count": 265,
      "max": [
        23.0,
        -15.0,
        -1.0
      ],
      "min": [
        -21.0,
        -35.0,
        -21.0
      ],
      "type": "VEC3"
    },
    {
      "bufferView": 1,
      "byteOffset": 36444,
      "componentType": 5126,
      "count": 265,
      "max": [
        1.0,
        1.0,
        1.0
      ],
      "min": [
        -1.0,
        -1.0,
        -1.0
      ],
      "type": "VEC3"
    },
    {
      "bufferView": 0,
      "byteOffset": 31272,
      "componentType": 5125,
      "count": 702,
      "type": "SCALAR"
    },
    {
      "bufferView": 1,
      "byteOffset": 39624,
      "componentType": 5126,
      "count": 898,
      "max": [
        35.0,
        3.0,
        -1.985200047492981
      ],
      "min": [
        -33.0,
        -53.92829895019531,
        -22.0
      ],
      "type": "VEC3"
    },
    {
      "bufferView": 1,
      "byteOffset": 50400,
      "componentType": 5126,
      "count": 898,
      "max": [
        1.0,
        1.0,
        1.0
      ],
      "min": [
        -1.0,
        -1.0,
        -1.0
      ],
      "type": "VEC3"
    },
    {
      "bufferView": 0,
      "byteOffset": 34080,
      "componentType": 5125,
      "count": 3822,
      "type": "SCALAR"
    },
    {
      "bufferView": 1,
      "byteOffset": 61176,
      "componentType": 5126,
      "count": 304,
      "max": [
        9.0,
        -19.0,
        18.715999603271484
      ],
      "min": [
        -6.171999931335449,
        -59.72100067138672,
        -24.945999145507813
      ],
      "type": "VEC3"
    },
    {
      "bufferView": 1,
      "byteOffset": 64824,
      "componentType": 5126,
      "count": 304,
      "max": [
        0.9924986362457275,
        0.9796037673950195,
        0.9864963889122009
      ],
      "min": [
        -0.9924132823944092,
        -0.9940271973609924,
        -1.0
      ],
      "type": "VEC3"
    },
    {
      "bufferView": 0,
      "byteOffset": 49368,
      "componentType": 5125,
      "count": 786,
      "type": "SCALAR"
    },
    {
      "bufferView": 1,
      "byteOffset": 68472,
      "componentType": 5126,
      "count": 6886,
      "max": [
        71.0,
        -0.0,
        -33.0
      ],
      "min": [
        -54.63999938964844,
        -10.0,
        -54.380001068115234
      ],
      "type": "VEC3"
    },
    {
      "bufferView": 1,
      "byteOffset": 151104,
      "componentType": 5126,
      "count": 6886,
      "max": [
        1.0,
        1.0,
        1.0
      ],
      "min": [
        -1.0,
        -1.0,
        -1.0
      ],
      "type": "VEC3"
    },
    {
      "bufferView": 0,
      "byteOffset": 52512,
      "componentType": 5125,
      "count": 20226,
      "type": "SCALAR"
    }
  ],
  "asset": {
    "extras": {
      "author": "djbarre2 (https://sketchfab.com/djbarre2)",
      "license": "CC-BY-4.0 (http://creativecommons.org/licenses/by/4.0/)",
      "source": "https://sketchfab.com/3d-models/rocky-the-rockstar-ba735282aba34160951db68f25ab4542",
      "title": "Rocky The Rockstar"
    },
    "generator": "Sketchfab-12.16.1",
    "version": "2.0"
  },
  "bufferViews": [
    {
      "buffer": 0,
      "byteLength": 133416,
      "name": "floatBufferViews",
      "target": 34963
    },
    {
      "buffer": 0,
      "byteLength": 233736,
      "byteOffset": 133416,
      "byteStride": 12,
      "name": "floatBufferViews",
      "target": 34962
    }
  ],
  "buffers": [
    {
      "byteLength": 367152,
      "uri": "scene.bin"
    }
  ],
  "materials": [
    {
      "doubleSided": true,
      "name": "color_11452141",
      "pbrMetallicRoughness": {
        "baseColorFactor": [
          0.682353,
          0.745098,
          0.929412,
          1.0
        ],
        "metallicFactor": 0.0
      }
    },
    {
      "doubleSided": true,
      "name": "color_15277357",
      "pbrMetallicRoughness": {
        "baseColorFactor": [
          0.913725,
          0.113725,
          0.176471,
          1.0
        ],
        "metallicFactor": 0.0
      }
    },
    {
      "doubleSided": true,
      "name": "color_16089887",
      "pbrMetallicRoughness": {
        "baseColorFactor": [
          0.960784,
          0.513726,
          0.121569,
          1.0
        ],
        "metallicFactor": 0.0
      }
    },
    {
      "doubleSided": true,
      "name": "color_16768282",
      "pbrMetallicRoughness": {
        "baseColorFactor": [
          1.0,
          0.866667,
          0.101961,
          1.0
        ],
        "metallicFactor": 0.0
      }
    },
    {
      "doubleSided": true,
      "name": "color_2829873",
      "pbrMetallicRoughness": {
        "baseColorFactor": [
          0.168627,
          0.180392,
          0.192157,
          1.0
        ],
        "metallicFactor": 0.0
      }
    }
  ],
  "meshes": [
    {
      "name": "Object_0",
      "primitives": [
        {
          "attributes": {
            "NORMAL": 1,
            "POSITION": 0
          },
          "indices": 2,
          "material": 0,
          "mode": 4
        }
      ]
    },
    {
      "name": "Object_1",
      "primitives": [
        {
          "attributes": {
            "NORMAL": 4,
            "POSITION": 3
          },
          "indices": 5,
          "material": 1,
          "mode": 4
        }
      ]
    },
    {
      "name": "Object_2",
      "primitives": [
        {
          "attributes": {
            "NORMAL": 7,
            "POSITION": 6
          },
          "indices": 8,
          "material": 2,
          "mode": 4
        }
      ]
    },
    {
      "name": "Object_3",
      "primitives": [
        {
          "attributes": {
            "NORMAL": 10,
            "POSITION": 9
          },
          "indices": 11,
          "material": 3,
          "mode": 4
        }
      ]
    },
    {
      "name": "Object_4",
      "primitives": [
        {
          "attributes": {
            "NORMAL": 13,
            "POSITION": 12
          },
          "indices": 14,
          "material": 4,
          "mode": 4
        }
      ]
    }
  ],
  "nodes": [
    {
      "children": [
        1
      ],
      "matrix": [
        1.0,
        0.0,
        0.0,
        0.0,
        0.0,
        2.220446049250313e-16,
        -1.0,
        0.0,
        0.0,
        1.0,
        2.220446049250313e-16,
        0.0,
        0.0,
        0.0,
        0.0,
        1.0
      ],
      "name": "Sketchfab_model"
    },
    {
      "children": [
        2,
        3,
        4,
        5,
        6
      ],
      "name": "tinker.obj.cleaner.materialmerger.gles"
    },
    {
      "mesh": 0,
      "name": "Object_2"
    },
    {
      "mesh": 1,
      "name": "Object_3"
    },
    {
      "mesh": 2,
      "name": "Object_4"
    },
    {
      "mesh": 3,
      "name": "Object_5"
    },
    {
      "mesh": 4,
      "name": "Object_6"
    }
  ],
  "scene": 0,
  "scenes": [
    {
      "name": "Sketchfab_Scene",
      "nodes": [
        0
      ]
    }
  ]
}
